# xmcd
#
# Track frame offsets: 
#        150
#        10845
#        28106
#        39624
#        52203
#        64138
#        75988
#        89015
#        101772
#        110382
#        118313
#        132888
#        136326
#        147770
#        162184
#        176096
#        193014
#        209837
#        224754
#        249646
#
# Disc length: 3535 seconds
#
# Revision: 0
# Processed by: cddbd v1.5.2PL0 Copyright (c) Steve Scherf et al.
# Submitted via: ExactAudioCopy v0.99pb4
#
DISCID=360dcd14
DTITLE=Replacments - Maniac- Disc 2
DYEAR=1986
DGENRE=Ambient
TTITLE0=Waitress in the Sky
TTITLE1=Take Me Down to the Hospital
TTITLE2=Gary's Got a Boner
TTITLE3=If Only You Were Lonely
TTITLE4=Baby Strange
TTITLE5=Hitchin' a Ride
TTITLE6=Nowhere Man
TTITLE7=Go
TTITLE8=Fuck School
TTITLE9=Hayday
TTITLE10=Bastards of Young
TTITLE11=That'll Be the Day
TTITLE12=Color Me Impressed
TTITLE13=Bastards of Young
TTITLE14=Kiss Me on the Bus
TTITLE15=IOU
TTITLE16=Bastards of Young
TTITLE17=Valentine
TTITLE18=Kiss Me on the Bus
TTITLE19=Data
EXTD=
EXTT0=
EXTT1=
EXTT2=
EXTT3=
EXTT4=
EXTT5=
EXTT6=
EXTT7=
EXTT8=
EXTT9=
EXTT10=
EXTT11=
EXTT12=
EXTT13=
EXTT14=
EXTT15=
EXTT16=
EXTT17=
EXTT18=
EXTT19=
PLAYORDER=
